<svg xmlns="http://www.w3.org/2000/svg" id="katman_1" data-name="katman 1" width="417.7051" height="180.3154" viewBox="0 0 417.7051 180.3154"><defs><style>      .cls-1 {        fill: #27959b;      }      .cls-1, .cls-2 {        stroke-width: 0px;      }      .cls-2 {        fill: #f15c34;      }    </style></defs><g><g id="Resim_2" data-name="Resim 2"><path class="cls-2" d="m206.7961,102.4402c0-3.7089-.0169-7.4179.0153-11.1265.0056-.6475.1521-1.3031.3119-1.9388.1365-.543.5827-.9635,1.1426-1.0614.4709-.0823.9528-.1445,1.4303-.1466,3.6541-.0159,7.3086-.0413,10.9625-.0105,2.1032.0177,2.9371.8588,3.0862,2.9598.0328.4617.0211.9267.0221,1.3902.0133,6.7804.0258,13.5609.0364,20.3413.0007.4633.0148.9294-.0288,1.3895-.1338,1.4152-1.0647,2.3127-2.5158,2.4319-.4099.0337-.8247.0103-1.2372.0128-3.2415.0197-6.483.0321-9.7243.064-.8362.0082-1.6347-.0738-2.4047-.4644-.6298-.3194-1.0004-.9778-1.0486-1.6732-.0401-.5778-.0631-1.1576-.0643-1.7365-.0071-3.4772-.0034-6.9543-.0034-10.4315.0066,0,.0133,0,.0199,0Z"></path></g><g><path class="cls-1" d="m26.5536,173.416c-1.7612,0-3.2476-.2998-4.4595-.9014-1.2119-.6006-2.186-1.4189-2.9209-2.4551-.7358-1.0352-1.2744-2.2158-1.6162-3.542s-.5127-2.7041-.5127-4.1338v-11.1875h3.4805v11.1875c0,1.0156.1035,1.9941.311,2.9365.2065.9434.5381,1.7871.9941,2.5332.4556.7461,1.0723,1.3359,1.8491,1.7715.7769.4346,1.7349.6523,2.8745.6523,1.1602,0,2.1289-.2227,2.9058-.668s1.3877-1.0459,1.8335-1.8027c.4453-.7559.7715-1.6006.979-2.5322.2065-.9326.3105-1.8955.3105-2.8906v-11.1875h3.5117v11.1875c0,1.5127-.1816,2.9365-.5439,4.2734-.3628,1.3359-.9219,2.5068-1.6782,3.5117s-1.7354,1.7969-2.9365,2.377c-1.2017.5801-2.6626.8701-4.3818.8701Z"></path><path class="cls-1" d="m56.8842,156.3867c-.2075-.2285-.5078-.4717-.9014-.7305s-.8599-.502-1.3984-.7305c-.5386-.2275-1.1187-.4141-1.7402-.5596-.6216-.1445-1.2637-.2178-1.9268-.2178-1.4502,0-2.5278.2686-3.2319.8057-.7046.5371-1.0566,1.2812-1.0566,2.2305,0,.7021.1968,1.2549.5908,1.6572.3931.4033.9941.7383,1.8022,1.0068s1.8228.5576,3.0454.8672c1.4917.3516,2.7861.7695,3.8848,1.2549,1.0977.4854,1.937,1.1309,2.5171,1.9355.5796.8057.8701,1.8691.8701,3.1904,0,1.1152-.2075,2.0762-.6216,2.8809-.4146.8057-.9946,1.4609-1.7402,1.9678-.7456.5059-1.606.8779-2.5791,1.1152-.9741.2363-2.02.3555-3.1392.3555-1.0981,0-2.1904-.1143-3.2783-.3418s-2.124-.5645-3.1074-1.0098c-.9844-.4453-1.8911-.9893-2.7192-1.6318l1.585-2.9834c.269.2695.6572.5654,1.165.8857.5073.3213,1.0981.627,1.7715.917.6729.29,1.4087.5332,2.2065.7305.7974.1973,1.6104.2949,2.4395.2949,1.3877,0,2.4497-.2422,3.1851-.7256s1.1035-1.1797,1.1035-2.0859c0-.7441-.2388-1.3379-.7148-1.7822-.4771-.4434-1.1709-.8203-2.082-1.1309-.9121-.3096-1.9995-.6201-3.2632-.9297-1.4502-.3926-2.6621-.8203-3.6357-1.2852-.9741-.4648-1.7046-1.0645-2.1909-1.7979-.4873-.7334-.7305-1.6689-.7305-2.8047,0-1.4463.3521-2.6699,1.0566-3.6729.7041-1.002,1.6626-1.7559,2.8745-2.2617s2.5742-.7598,4.0864-.7598c.9946,0,1.937.1094,2.8281.3262.8906.2178,1.7246.5127,2.5015.8857s1.4863.7979,2.1289,1.2744l-1.585,2.8594Z"></path><path class="cls-1" d="m71.8315,151.1963h3.2939l8.5771,22.0645h-3.667l-2.1562-5.998h-8.8232l-2.166,5.998h-3.6978l8.6392-22.0645Zm5.1211,13.4873l-3.4741-9.665-3.4902,9.665h6.9644Z"></path><path class="cls-1" d="m108.5326,173.416c-1.5957,0-3.0356-.3154-4.3198-.9473-1.2847-.6318-2.3931-1.4766-3.3252-2.5332s-1.6523-2.2529-2.1597-3.5889c-.5078-1.3369-.7612-2.709-.7612-4.1182,0-1.4707.2686-2.874.8076-4.2109.5386-1.3359,1.2847-2.5273,2.2378-3.5732.9526-1.0459,2.0767-1.875,3.3716-2.4863,1.2944-.6113,2.6982-.917,4.2109-.917,1.5742,0,3.0088.3213,4.3042.9639,1.2944.6426,2.4028,1.502,3.3247,2.5791s1.6367,2.2793,2.1445,3.6045c.5073,1.3262.7612,2.6836.7612,4.0713,0,1.4717-.2642,2.875-.7925,4.2109s-1.269,2.5273-2.2217,3.5732c-.9531,1.0469-2.0776,1.8701-3.3721,2.4707-1.2949.6016-2.6987.9014-4.2104.9014Zm.0308-3.1387c1.1187,0,2.1133-.2275,2.9834-.6836.8701-.4551,1.6006-1.0723,2.1909-1.8486.5903-.7773,1.041-1.6475,1.3516-2.6104.311-.9639.4663-1.9316.4663-2.9062,0-1.0352-.1606-2.04-.4814-3.0146-.3218-.9727-.7925-1.833-1.4141-2.5791s-1.3628-1.3408-2.2222-1.7871c-.8599-.4443-1.8179-.668-2.8745-.668-1.1187,0-2.1133.2285-2.9834.6836-.8701.4561-1.6055,1.0723-2.2061,1.8496-.6016.7764-1.062,1.6416-1.3833,2.5947s-.4814,1.9268-.4814,2.9209c0,1.0361.1655,2.041.4971,3.0146.3311.9736.8027,1.833,1.4141,2.5791.6108.7461,1.3521,1.3418,2.2222,1.7871s1.8438.668,2.9209.668Zm.4351-4.6924h3.3564l6.7124,7.6758h-3.3564l-6.7124-7.6758Z"></path><path class="cls-1" d="m125.1889,167.002v-9.8701h3.4185v9.1768c0,1.4375.2642,2.5195.7925,3.249.5283.7285,1.2998,1.0928,2.3154,1.0928.6416,0,1.2686-.1328,1.8799-.3984.6108-.2656,1.1704-.6582,1.6782-1.1807.5073-.5205.9165-1.1484,1.2275-1.8848v-10.0547h3.4185v12.2861c0,.3896.0723.667.2173.8311.1445.1641.3833.2568.7148.2773v2.7344c-.3525.0625-.6426.1035-.8701.124-.2285.0205-.4458.0312-.6528.0312-.6216,0-1.1396-.1689-1.5537-.5088-.4146-.3398-.6523-.7764-.7148-1.3105l-.062-1.6025c-.7256,1.1719-1.668,2.0605-2.8281,2.667s-2.4346.9102-3.8223.9102c-1.6987,0-2.9834-.5547-3.8535-1.665s-1.3052-2.7451-1.3052-4.9043Z"></path><path class="cls-1" d="m146.1962,168.5518c0-1.0264.2954-1.9238.8857-2.6943.5903-.7695,1.4033-1.3643,2.4395-1.7852,1.0356-.4209,2.2373-.6318,3.605-.6318.7246,0,1.4653.0518,2.2217.1553.7563.1045,1.4243.2695,2.0044.498v-1.0205c0-1.1211-.3418-1.999-1.0254-2.6309s-1.668-.9482-2.9521-.9482c-.9121,0-1.7715.1602-2.5796.4814-.8076.3213-1.668.7725-2.5791,1.3516l-1.1499-2.2988c1.0771-.7256,2.1597-1.2637,3.2476-1.6162,1.0874-.3525,2.2319-.5283,3.4341-.5283,2.1753,0,3.8892.5684,5.1431,1.7051,1.2529,1.1377,1.8799,2.75,1.8799,4.8389v5.9922c0,.3896.0669.666.2021.8301.1343.1641.3677.2559.6992.2764v2.7344c-.311.0625-.5903.1035-.8394.124-.2485.0205-.4556.0312-.6211.0312-.7256,0-1.2744-.1758-1.6475-.5283-.3726-.3516-.5903-.7656-.6523-1.2432l-.0933-.9316c-.7046.9111-1.606,1.6152-2.7036,2.1123-1.0986.498-2.2065.7461-3.3252.7461-1.0776,0-2.041-.2207-2.8901-.6611-.8496-.4414-1.5127-1.043-1.9888-1.8018-.4771-.7598-.7148-1.6113-.7148-2.5566Zm10.3486.9746c.2485-.2646.4448-.5293.5903-.7949.1445-.2646.2173-.499.2173-.7031v-1.833c-.5801-.2246-1.1914-.3926-1.8335-.5049-.6421-.1113-1.2739-.168-1.8955-.168-1.2432,0-2.2529.2451-3.0298.7344-.7769.4883-1.1655,1.1611-1.1655,2.0166,0,.4688.1294.917.3887,1.3447.2588.4277.6313.7744,1.1187,1.0391.4863.2646,1.0923.3975,1.8179.3975.7456,0,1.4604-.1426,2.144-.4277.6841-.2852,1.2324-.6523,1.6475-1.1006Z"></path><path class="cls-1" d="m168.0429,150.5752h3.4185v18.0498c0,.8311.1245,1.3613.373,1.5889.2485.2295.5591.3428.9321.3428.4141,0,.8027-.041,1.1655-.124.3623-.082.6782-.1865.9478-.3105l.4971,2.7031c-.4971.208-1.0874.3838-1.7715.5283-.6836.1455-1.2949.2178-1.8335.2178-1.1602,0-2.0718-.3262-2.7344-.9814-.6636-.6543-.9946-1.5635-.9946-2.7266v-19.2881Z"></path><path class="cls-1" d="m180.4735,173.2608v-16.1289h3.418v16.1289h-3.418Zm.1553-19.1123v-3.5732h3.0762v3.5732h-3.0762Z"></path><path class="cls-1" d="m200.144,172.4834c-.2905.1455-.6528.3008-1.0879.4668s-.9272.3105-1.4761.4346c-.5488.125-1.1138.1865-1.6934.1865-.7046,0-1.3574-.124-1.958-.3711-.6011-.2471-1.0825-.6436-1.4448-1.1904-.3628-.5469-.5439-1.2539-.5439-2.1201v-10.1162h-2.1445v-2.6416h2.1445v-5.3447h3.4185v5.3447h3.5425v2.6416h-3.5425v9.0225c.041.5557.2222.9678.5439,1.2354.3208.2676.7192.4014,1.1963.4014.4761,0,.9321-.082,1.3672-.248s.7559-.3008.9634-.4043l.7148,2.7031Z"></path><path class="cls-1" d="m206.1415,177.083c.311.041.6162.0879.917.1396.2998.0518.5435.0781.73.0781.3521,0,.6577-.1084.9165-.3242.2588-.2168.5234-.6113.793-1.1855.2686-.5752.6006-1.4062.9941-2.4932l-6.6812-16.166h3.5737l4.9717,12.7041,4.4131-12.7041h3.2939l-7.3652,19.9053c-.2275.5977-.5586,1.1484-.9941,1.6543-.4346.5049-.9736.9014-1.6162,1.1904-.6416.2881-1.3984.4336-2.2681.4336-.2485,0-.5078-.0215-.7769-.0625-.2695-.042-.5703-.1035-.9014-.1865v-2.9834Z"></path><path class="cls-1" d="m235.664,173.2608v-16.1289h3.4189v16.1289h-3.4189Zm.1553-19.1123v-3.5732h3.0771v3.5732h-3.0771Z"></path><path class="cls-1" d="m260.8671,173.2608h-3.4189v-9c0-1.4951-.2432-2.5908-.7295-3.2871-.4873-.6963-1.208-1.0449-2.1602-1.0449-.6631,0-1.3213.1631-1.9736.4893s-1.2383.7686-1.7559,1.3291-.8906,1.207-1.1182,1.9395v9.5742h-3.4189v-16.1289h3.1074v3.2607c.415-.7178.958-1.3389,1.6318-1.8623.6729-.5234,1.4346-.9277,2.2842-1.2158.8496-.2871,1.751-.4307,2.7041-.4307.9727,0,1.7754.1748,2.4082.5234.6318.3486,1.1289.8262,1.4912,1.4316s.6113,1.3027.7461,2.0928c.1348.791.2021,1.627.2021,2.5088v9.8203Z"></path><path class="cls-1" d="m277.7714,162.042c0-1.3467.2373-2.667.7148-3.9619.4756-1.2949,1.1748-2.4756,2.0977-3.543.9209-1.0664,2.0449-1.916,3.3711-2.5479s2.8281-.9482,4.5068-.9482c1.9883,0,3.708.4512,5.1582,1.3525,1.4502.9004,2.5273,2.0557,3.2314,3.4648l-2.7344,1.833c-.4141-.8906-.9375-1.5947-1.5693-2.1133-.6318-.5176-1.3154-.8799-2.0508-1.0879-.7354-.2061-1.4561-.3105-2.1602-.3105-1.1602,0-2.1748.2334-3.0449.6992-.8701.4668-1.6006,1.083-2.1914,1.8496-.5898.7666-1.0361,1.626-1.3359,2.5791-.3008.9531-.4512,1.9062-.4512,2.8594,0,1.0557.1758,2.0771.5283,3.0605.3525.9844.8447,1.8545,1.4766,2.6104.6318.7568,1.3828,1.3516,2.2529,1.7871.8701.4346,1.8232.6523,2.8594.6523.7041,0,1.4395-.124,2.2061-.373.7666-.248,1.4766-.6367,2.1289-1.165s1.165-1.2275,1.5381-2.0977l2.8906,1.6465c-.4561,1.0986-1.166,2.0312-2.1289,2.7969-.9639.7676-2.041,1.3477-3.2324,1.7402-1.1914.3945-2.3672.5908-3.5273.5908-1.5537,0-2.9727-.3262-4.2568-.9785-1.2852-.6533-2.3926-1.5234-3.3252-2.6104-.9326-1.0879-1.6582-2.3105-2.1758-3.667-.5176-1.3574-.7764-2.7295-.7764-4.1182Z"></path><path class="cls-1" d="m303.6571,177.083c.3105.041.6162.0879.917.1396.2998.0518.5439.0781.7305.0781.3516,0,.6572-.1084.916-.3242.2588-.2168.5234-.6113.793-1.1855.2686-.5752.6006-1.4062.9941-2.4932l-6.6816-16.166h3.5742l4.9717,12.7041,4.4131-12.7041h3.2939l-7.3652,19.9053c-.2275.5977-.5586,1.1484-.9941,1.6543-.4346.5049-.9736.9014-1.6162,1.1904-.6416.2881-1.3984.4336-2.2686.4336-.248,0-.5078-.0215-.7764-.0625-.2695-.042-.5703-.1035-.9014-.1865v-2.9834Z"></path><path class="cls-1" d="m332.4335,173.5713c-1.3047,0-2.4551-.3076-3.4492-.9229-.9941-.6162-1.7822-1.416-2.3613-2.4023v9.6338h-3.4189v-22.748h3.0146v2.9229c.6211-.9639,1.4297-1.7334,2.4238-2.3086s2.1025-.8623,3.3252-.8623c1.1191,0,2.1445.2207,3.0762.6621.9326.4414,1.7402,1.0518,2.4248,1.832.6836.7803,1.2168,1.667,1.5996,2.6631.3838.9951.5752,2.0479.5752,3.1562,0,1.5391-.3057,2.9453-.917,4.2178s-1.46,2.2832-2.5479,3.0332c-1.0879.749-2.3359,1.123-3.7451,1.123Zm-1.1182-2.9209c.7246,0,1.3828-.1533,1.9736-.459.5898-.3066,1.0977-.7148,1.5225-1.2256.4238-.5107.75-1.0938.9785-1.7471.2275-.6533.3418-1.3271.3418-2.0215,0-.7354-.124-1.4307-.373-2.084-.248-.6533-.6055-1.2246-1.0723-1.7158-.4658-.4893-1.0049-.8779-1.6152-1.1631-.6113-.2861-1.2793-.4297-2.0049-.4297-.4346,0-.8906.082-1.3672.2441-.4766.1631-.9219.3867-1.3359.6719-.415.2852-.7773.6211-1.0879,1.0078s-.5283.7939-.6523,1.2207v4.2178c.29.6523.6729,1.2373,1.1494,1.7568s1.0254.9375,1.6475,1.2529c.6211.3154,1.2529.4736,1.8955.4736Z"></path><path class="cls-1" d="m354.9638,159.96c-1.3262.0215-2.502.3213-3.5273.9014s-1.7559,1.3984-2.1904,2.4551v9.9443h-3.4189v-16.1289h3.1699v3.5117c.5596-1.1182,1.2949-2.0146,2.2061-2.6875.9121-.6729,1.875-1.041,2.8906-1.1035h.5127c.1348,0,.2539.0107.3574.0312v3.0762Z"></path><path class="cls-1" d="m360.4022,167.002v-9.8701h3.419v9.1768c0,1.4375.2637,2.5195.792,3.249.5283.7285,1.2998,1.0928,2.3154,1.0928.6416,0,1.2686-.1328,1.8799-.3984s1.1699-.6582,1.6777-1.1807c.5078-.5205.917-1.1484,1.2275-1.8848v-10.0547h3.4189v12.2861c0,.3896.0723.667.2178.8311.1445.1641.3828.2568.7139.2773v2.7344c-.3525.0625-.6416.1035-.8701.124-.2275.0205-.4453.0312-.6523.0312-.6211,0-1.1397-.1689-1.5537-.5088-.415-.3398-.6523-.7764-.7148-1.3105l-.0615-1.6025c-.7256,1.1719-1.668,2.0605-2.8281,2.667-1.1611.6064-2.4346.9102-3.8223.9102-1.6992,0-2.9834-.5547-3.8535-1.665s-1.3057-2.7451-1.3057-4.9043Z"></path><path class="cls-1" d="m388.37,173.5713c-1.3672,0-2.6621-.2227-3.8848-.668s-2.2686-1.1133-3.1387-2.0039l1.2744-2.2998c.9326.8281,1.8691,1.4297,2.8125,1.8018.9424.373,1.8799.5596,2.8125.5596.9521,0,1.7295-.1768,2.3311-.5322.6006-.3555.9004-.8779.9004-1.5684,0-.5127-.1553-.8926-.4658-1.1387s-.7617-.4619-1.3516-.6465c-.5908-.1846-1.3008-.3896-2.1289-.6162-1.1602-.3486-2.1338-.7129-2.9209-1.0928-.7881-.3799-1.3779-.8467-1.7715-1.4014-.3936-.5537-.5908-1.2617-.5908-2.124,0-1.0469.2695-1.9395.8086-2.6787.5381-.7393,1.2891-1.3027,2.2529-1.6934.9629-.3896,2.0762-.585,3.3408-.585,1.1807,0,2.2734.1816,3.2783.5439s1.8896.9268,2.6572,1.6934l-1.4609,2.2686c-.7256-.6631-1.4658-1.1494-2.2217-1.4609-.7568-.3105-1.5693-.4658-2.4395-.4658-.498,0-.9746.0566-1.4297.1689-.4561.1123-.834.3174-1.1348.6152-.2998.2969-.4502.7119-.4502,1.2441,0,.4307.124.7793.373,1.0449.248.2666.6211.4922,1.1182.6768s1.1084.3896,1.834.6152c1.2637.3682,2.3408.7324,3.2314,1.0908s1.5801.8203,2.0664,1.3828c.4873.5645.7305,1.3379.7305,2.3213,0,1.5576-.585,2.7715-1.7559,3.6426-1.1699.8711-2.7295,1.3057-4.6768,1.3057Z"></path></g></g><g><path class="cls-1" d="m0,2.5221C0,1.1292,1.1292,0,2.5221,0h53.3866c9.9277,0,19.2827,1.5474,28.0688,4.6372,8.7822,3.0928,16.4189,7.2666,22.9131,12.521,6.4912,5.2578,11.6465,11.4399,15.4668,18.5498,3.8164,7.1128,5.728,14.6865,5.728,22.7236s-1.9116,15.6138-5.728,22.7231c-3.8203,7.1128-8.9756,13.3267-15.4668,18.6431-6.4941,5.3184-14.1309,9.4922-22.9131,12.5205-8.7861,3.0322-18.1411,4.5449-28.0688,4.5449H2.5221c-1.3929,0-2.5221-1.1292-2.5221-2.5221V2.5221Zm32.9951,25.5986v60.4362c0,1.3929,1.1292,2.5221,2.5221,2.5221h20.3915c5.499,0,10.6904-.8638,15.5811-2.5972,4.8867-1.73,9.165-4.0806,12.8315-7.0488,3.666-2.9678,6.5659-6.4287,8.707-10.3877,2.1372-3.9565,3.2075-8.1621,3.2075-12.6138s-1.0703-8.6865-3.2075-12.7065c-2.1411-4.0171-5.041-7.5127-8.707-10.481-3.6665-2.9678-7.9448-5.3154-12.8315-7.0488-4.8906-1.73-10.082-2.5967-15.5811-2.5967h-20.3915c-1.3929,0-2.5221,1.1292-2.5221,2.5221Z"></path><path class="cls-1" d="m144.3527,0h29.7448c.4758,0,.9418.1346,1.3444.3882l58.2711,36.7109V2.5221c0-1.3929,1.1292-2.5221,2.5221-2.5221h27.9509c1.3929,0,2.5221,1.1292,2.5221,2.5221v111.8191c0,1.3929-1.1292,2.5221-2.5221,2.5221h-27.9509c-1.3929,0-2.5221-1.1292-2.5221-2.5221v-42.4641c0-.8644-.4426-1.6685-1.1729-2.1309l-57.7143-36.542v81.1371c0,1.3929-1.1292,2.5221-2.5221,2.5221h-27.9509c-1.3929,0-2.5221-1.1292-2.5221-2.5221V2.5221c0-1.3929,1.1292-2.5221,2.5221-2.5221Z"></path><path class="cls-1" d="m289.6201,2.5221c0-1.3929,1.1292-2.5221,2.5221-2.5221h53.3861c9.9277,0,19.2832,1.5474,28.0684,4.6372,8.7822,3.0928,16.4189,7.2666,22.9141,12.521,6.4902,5.2578,11.6465,11.4399,15.4658,18.5498,3.8164,7.1128,5.7285,14.6865,5.7285,22.7236s-1.9121,15.6138-5.7285,22.7231c-3.8193,7.1128-8.9756,13.3267-15.4658,18.6431-6.4951,5.3184-14.1318,9.4922-22.9141,12.5205-8.7852,3.0322-18.1406,4.5449-28.0684,4.5449h-53.3861c-1.3929,0-2.5221-1.1292-2.5221-2.5221V2.5221Zm32.9951,25.5986v60.4362c0,1.3929,1.1292,2.5221,2.5221,2.5221h20.391c5.499,0,10.6904-.8638,15.5811-2.5972,4.8867-1.73,9.165-4.0806,12.8311-7.0488,3.666-2.9678,6.5664-6.4287,8.707-10.3877,2.1377-3.9565,3.208-8.1621,3.208-12.6138s-1.0703-8.6865-3.208-12.7065c-2.1406-4.0171-5.041-7.5127-8.707-10.481-3.666-2.9678-7.9443-5.3154-12.8311-7.0488-4.8906-1.73-10.082-2.5967-15.5811-2.5967h-20.391c-1.3929,0-2.5221,1.1292-2.5221,2.5221Z"></path></g></svg>